<svg aria-hidden="true" style="width:0;height:0;position:absolute;overflow:hidden" xmlns="http://www.w3.org/2000/svg"><defs><symbol id="icon-search" viewBox="0 0 32 32"><path style="fill:var(--color1,#3cb371)" d="M32 16c0 8.837-7.163 16-16 16S0 24.837 0 16 7.163 0 16 0s16 7.163 16 16z"/><path style="fill:var(--color1,#3cb371)" d="M16 29.333C8.648 29.333 2.667 23.352 2.667 16S8.648 2.667 16 2.667 29.333 8.648 29.333 16 23.352 29.333 16 29.333z"/><path style="fill:var(--color1,#3cb371)" opacity=".3" d="M14.716 11.779h-.625v2.312h-2.312v.625h2.312v2.312h.625v-2.312h2.312v-.625h-2.312z"/><path style="fill:var(--color1,#3cb371)" opacity=".3" d="m23.652 21.973-4.684-4.684a5.403 5.403 0 1 0-8.386.935 5.402 5.402 0 0 0 6.706.744l4.684 4.684a1.187 1.187 0 1 0 1.679-1.679zm-9.289-3.323c-2.364 0-4.287-1.923-4.287-4.287s1.923-4.287 4.287-4.287 4.287 1.923 4.287 4.287-1.923 4.287-4.287 4.287z"/><path fill="#fff" style="fill:var(--color2,#fff)" d="M14.216 11.279h-.625v2.312h-2.312v.625h2.312v2.312h.625v-2.312h2.312v-.625h-2.312z"/><path fill="#fff" style="fill:var(--color2,#fff)" d="m23.152 21.473-4.684-4.684a5.403 5.403 0 1 0-8.386.935 5.402 5.402 0 0 0 6.706.744l4.684 4.684a1.187 1.187 0 1 0 1.679-1.679zm-9.289-3.323c-2.364 0-4.287-1.923-4.287-4.287s1.923-4.287 4.287-4.287 4.287 1.923 4.287 4.287a4.292 4.292 0 0 1-4.287 4.287z"/></symbol></defs></svg>