<svg aria-hidden="true" style="position: absolute; width: 0; height: 0; overflow: hidden;" version="1.1" xmlns="http://www.w3.org/2000/svg" xmlns:xlink="http://www.w3.org/1999/xlink">
<defs>
<symbol id="icon-search" viewBox="0 0 32 32">
<path fill="#000" style="fill: var(--color1, #3CB371)" d="M32 16c0 8.837-7.163 16-16 16s-16-7.163-16-16c0-8.837 7.163-16 16-16s16 7.163 16 16z"></path>
<path fill="#000" style="fill: var(--color1, #3CB371)" d="M16 29.333c-7.352 0-13.333-5.981-13.333-13.333s5.981-13.333 13.333-13.333c7.352 0 13.333 5.981 13.333 13.333s-5.981 13.333-13.333 13.333z"></path>
<path fill="#000" style="fill: var(--color1, #3CB371)" opacity="0.3" d="M14.716 11.779h-0.625v2.312h-2.312v0.625h2.312v2.312h0.625v-2.312h2.312v-0.625h-2.312z"></path>
<path fill="#000" style="fill: var(--color1, #3CB371)" opacity="0.3" d="M23.652 21.973l-4.684-4.684c1.323-2.089 1.077-4.885-0.744-6.707-2.11-2.11-5.531-2.11-7.642 0s-2.11 5.531 0 7.642c1.821 1.821 4.618 2.067 6.706 0.744l4.684 4.684c0.464 0.464 1.215 0.464 1.679 0s0.464-1.215 0-1.679zM14.363 18.65c-2.364 0-4.287-1.923-4.287-4.287s1.923-4.287 4.287-4.287c2.364 0 4.287 1.923 4.287 4.287s-1.923 4.287-4.287 4.287z"></path>
<path fill="#fff" style="fill: var(--color2, #fff)" d="M14.216 11.279h-0.625v2.312h-2.312v0.625h2.312v2.312h0.625v-2.312h2.312v-0.625h-2.312z"></path>
<path fill="#fff" style="fill: var(--color2, #fff)" d="M23.152 21.473l-4.684-4.684c1.323-2.089 1.077-4.885-0.744-6.707-2.11-2.11-5.531-2.11-7.642 0s-2.11 5.531 0 7.642c1.821 1.821 4.618 2.067 6.706 0.744l4.684 4.684c0.464 0.464 1.215 0.464 1.679 0s0.464-1.215 0-1.679zM13.863 18.15c-2.364 0-4.287-1.923-4.287-4.287s1.923-4.287 4.287-4.287 4.287 1.923 4.287 4.287c0 2.364-1.923 4.287-4.287 4.287z"></path>
</symbol>
</defs>
</svg>